<?xml version="1.0" encoding="UTF-8" standalone="no"?>
<svg
   xmlns:dc="http://purl.org/dc/elements/1.1/"
   xmlns:cc="http://creativecommons.org/ns#"
   xmlns:rdf="http://www.w3.org/1999/02/22-rdf-syntax-ns#"
   xmlns:svg="http://www.w3.org/2000/svg"
   xmlns="http://www.w3.org/2000/svg"
   xmlns:sodipodi="http://sodipodi.sourceforge.net/DTD/sodipodi-0.dtd"
   xmlns:inkscape="http://www.inkscape.org/namespaces/inkscape"
   version="1.1"
   id="Layer_1"
   width="256px"
   height="256px"
   viewBox="0 0 256 256"
   sodipodi:docname="edge.svg"
   inkscape:version="1.0.1 (1.0.1+r73)"
   inkscape:export-filename="/home/robamler/Documents/projects/linguistic-time-capsule/wasm/www/src/edge.png"
   inkscape:export-xdpi="24"
   inkscape:export-ydpi="24">
  <metadata
     id="metadata67">
    <rdf:RDF>
      <cc:Work
         rdf:about="">
        <dc:format>image/svg+xml</dc:format>
        <dc:type
           rdf:resource="http://purl.org/dc/dcmitype/StillImage" />
        <dc:title>Edge_Logo_265x265</dc:title>
      </cc:Work>
    </rdf:RDF>
  </metadata>
  <sodipodi:namedview
     pagecolor="#ffffff"
     bordercolor="#666666"
     borderopacity="1"
     objecttolerance="10"
     gridtolerance="10"
     guidetolerance="10"
     inkscape:pageopacity="0"
     inkscape:pageshadow="2"
     inkscape:window-width="1544"
     inkscape:window-height="873"
     id="namedview65"
     showgrid="false"
     inkscape:zoom="3.015625"
     inkscape:cx="128"
     inkscape:cy="128"
     inkscape:window-x="56"
     inkscape:window-y="27"
     inkscape:window-maximized="1"
     inkscape:current-layer="Layer_1"
     inkscape:document-rotation="0" />
  <defs
     id="defs48">
    <style
       id="style2">.cls-1{fill:url(#linear-gradient);}.cls-2{opacity:0.35;fill:url(#radial-gradient);}.cls-2,.cls-4{isolation:isolate;}.cls-3{fill:url(#linear-gradient-2);}.cls-4{opacity:0.41;fill:url(#radial-gradient-2);}.cls-5{fill:url(#radial-gradient-3);}.cls-6{fill:url(#radial-gradient-4);}</style>
    <linearGradient
       id="linear-gradient"
       x1="63.33"
       y1="84.03"
       x2="241.67"
       y2="84.03"
       gradientTransform="matrix(1,0,0,-1,0,266)"
       gradientUnits="userSpaceOnUse">
      <stop
         offset="0"
         stop-color="#0c59a4"
         id="stop4" />
      <stop
         offset="1"
         stop-color="#114a8b"
         id="stop6" />
    </linearGradient>
    <radialGradient
       id="radial-gradient"
       cx="161.83"
       cy="68.91"
       r="95.38"
       gradientTransform="matrix(1,0,0,-0.95,0,248.84)"
       gradientUnits="userSpaceOnUse">
      <stop
         offset="0.72"
         stop-opacity="0"
         id="stop9" />
      <stop
         offset="0.95"
         stop-opacity="0.53"
         id="stop11" />
      <stop
         offset="1"
         id="stop13" />
    </radialGradient>
    <linearGradient
       id="linear-gradient-2"
       x1="157.35"
       y1="161.39"
       x2="45.96"
       y2="40.06"
       gradientTransform="matrix(1,0,0,-1,0,266)"
       gradientUnits="userSpaceOnUse">
      <stop
         offset="0"
         stop-color="#1b9de2"
         id="stop16" />
      <stop
         offset="0.16"
         stop-color="#1595df"
         id="stop18" />
      <stop
         offset="0.67"
         stop-color="#0680d7"
         id="stop20" />
      <stop
         offset="1"
         stop-color="#0078d4"
         id="stop22" />
    </linearGradient>
    <radialGradient
       id="radial-gradient-2"
       cx="-340.29"
       cy="62.99"
       r="143.24"
       gradientTransform="matrix(0.15,-0.99,-0.8,-0.12,176.64,-125.4)"
       gradientUnits="userSpaceOnUse">
      <stop
         offset="0.76"
         stop-opacity="0"
         id="stop25" />
      <stop
         offset="0.95"
         stop-opacity="0.5"
         id="stop27" />
      <stop
         offset="1"
         id="stop29" />
    </radialGradient>
    <radialGradient
       id="radial-gradient-3"
       cx="113.37"
       cy="570.21"
       r="202.43"
       gradientTransform="matrix(-0.04,1,2.13,0.08,-1179.54,-106.69)"
       gradientUnits="userSpaceOnUse">
      <stop
         offset="0"
         stop-color="#35c1f1"
         id="stop32" />
      <stop
         offset="0.11"
         stop-color="#34c1ed"
         id="stop34" />
      <stop
         offset="0.23"
         stop-color="#2fc2df"
         id="stop36" />
      <stop
         offset="0.31"
         stop-color="#2bc3d2"
         id="stop38" />
      <stop
         offset="0.67"
         stop-color="#36c752"
         id="stop40" />
    </radialGradient>
    <radialGradient
       id="radial-gradient-4"
       cx="376.52"
       cy="567.97"
       r="97.34"
       gradientTransform="matrix(0.28,0.96,0.78,-0.23,-303.76,-148.5)"
       gradientUnits="userSpaceOnUse">
      <stop
         offset="0"
         stop-color="#66eb6e"
         id="stop43" />
      <stop
         offset="1"
         stop-color="#66eb6e"
         stop-opacity="0"
         id="stop45" />
    </radialGradient>
  </defs>
  <title
     id="title50">Edge_Logo_265x265</title>
  <g
     id="g868"
     transform="matrix(0.95,0,0,0.95,6.3994,6.4007225)"
     style="stroke-width:1.05263">
    <path
       class="cls-1"
       d="m 235.68,195.46 a 93.73,93.73 0 0 1 -10.54,4.71 101.87,101.87 0 0 1 -35.9,6.46 c -47.32,0 -88.54,-32.55 -88.54,-74.32 A 31.48,31.48 0 0 1 117.13,105 c -42.8,1.8 -53.8,46.4 -53.8,72.53 0,73.88 68.09,81.37 82.76,81.37 7.91,0 19.84,-2.3 27,-4.56 l 1.31,-0.44 a 128.34,128.34 0 0 0 66.6,-52.8 4,4 0 0 0 -5.32,-5.64 z"
       transform="translate(-4.63,-4.92)"
       id="path52"
       style="fill:url(#linear-gradient);stroke-width:1.05263" />
    <path
       class="cls-2"
       d="m 235.68,195.46 a 93.73,93.73 0 0 1 -10.54,4.71 101.87,101.87 0 0 1 -35.9,6.46 c -47.32,0 -88.54,-32.55 -88.54,-74.32 A 31.48,31.48 0 0 1 117.13,105 c -42.8,1.8 -53.8,46.4 -53.8,72.53 0,73.88 68.09,81.37 82.76,81.37 7.91,0 19.84,-2.3 27,-4.56 l 1.31,-0.44 a 128.34,128.34 0 0 0 66.6,-52.8 4,4 0 0 0 -5.32,-5.64 z"
       transform="translate(-4.63,-4.92)"
       id="path54"
       style="fill:url(#radial-gradient);stroke-width:1.05263" />
    <path
       class="cls-3"
       d="M 110.34,246.34 A 79.2,79.2 0 0 1 87.6,225 80.72,80.72 0 0 1 117.13,105 c 3.12,-1.47 8.45,-4.13 15.54,-4 a 32.35,32.35 0 0 1 25.69,13 31.88,31.88 0 0 1 6.36,18.66 c 0,-0.21 24.46,-79.6 -80,-79.6 -43.9,0 -80,41.66 -80,78.21 a 130.15,130.15 0 0 0 12.11,56 128,128 0 0 0 156.38,67.11 75.55,75.55 0 0 1 -62.78,-8 z"
       transform="translate(-4.63,-4.92)"
       id="path56"
       style="fill:url(#linear-gradient-2);stroke-width:1.05263" />
    <path
       class="cls-4"
       d="M 110.34,246.34 A 79.2,79.2 0 0 1 87.6,225 80.72,80.72 0 0 1 117.13,105 c 3.12,-1.47 8.45,-4.13 15.54,-4 a 32.35,32.35 0 0 1 25.69,13 31.88,31.88 0 0 1 6.36,18.66 c 0,-0.21 24.46,-79.6 -80,-79.6 -43.9,0 -80,41.66 -80,78.21 a 130.15,130.15 0 0 0 12.11,56 128,128 0 0 0 156.38,67.11 75.55,75.55 0 0 1 -62.78,-8 z"
       transform="translate(-4.63,-4.92)"
       id="path58"
       style="fill:url(#radial-gradient-2);stroke-width:1.05263" />
    <path
       class="cls-5"
       d="m 156.94,153.78 c -0.81,1.05 -3.3,2.5 -3.3,5.66 0,2.61 1.7,5.12 4.72,7.23 14.38,10 41.49,8.68 41.56,8.68 a 59.56,59.56 0 0 0 30.27,-8.35 61.38,61.38 0 0 0 30.43,-52.88 c 0.26,-22.41 -8,-37.31 -11.34,-43.91 C 228.09,28.76 182.35,4.92 132.61,4.92 a 128,128 0 0 0 -128,126.2 c 0.48,-36.54 36.8,-66.05 80,-66.05 3.5,0 23.46,0.34 42,10.07 16.34,8.58 24.9,18.94 30.85,29.21 6.18,10.67 7.28,24.15 7.28,29.52 0,5.37 -2.74,13.33 -7.8,19.91 z"
       transform="translate(-4.63,-4.92)"
       id="path60"
       style="fill:url(#radial-gradient-3);stroke-width:1.05263" />
    <path
       class="cls-6"
       d="m 156.94,153.78 c -0.81,1.05 -3.3,2.5 -3.3,5.66 0,2.61 1.7,5.12 4.72,7.23 14.38,10 41.49,8.68 41.56,8.68 a 59.56,59.56 0 0 0 30.27,-8.35 61.38,61.38 0 0 0 30.43,-52.88 c 0.26,-22.41 -8,-37.31 -11.34,-43.91 C 228.09,28.76 182.35,4.92 132.61,4.92 a 128,128 0 0 0 -128,126.2 c 0.48,-36.54 36.8,-66.05 80,-66.05 3.5,0 23.46,0.34 42,10.07 16.34,8.58 24.9,18.94 30.85,29.21 6.18,10.67 7.28,24.15 7.28,29.52 0,5.37 -2.74,13.33 -7.8,19.91 z"
       transform="translate(-4.63,-4.92)"
       id="path62"
       style="fill:url(#radial-gradient-4);stroke-width:1.05263" />
  </g>
</svg>
