<svg xmlns="http://www.w3.org/2000/svg" width="32" height="32" viewBox="0 0 8.467 8.467"><path style="solid-color:#000" d="M2.03 0a.879.879 0 00-.873.816h.453a.417.417 0 01.42-.364h5.56c.239 0 .424.185.424.423v5.562a.417.417 0 01-.364.42v.453a.879.879 0 00.816-.873V.875A.878.878 0 007.59 0z" color="#000" overflow="visible"/><path d="M3.047 7.106a1.194 1.194 0 01-1.686 0 1.193 1.193 0 010-1.686l1.194-1.194a1.194 1.194 0 011.723.039.282.282 0 01.067.08l.005.005-.001.001a.285.285 0 01-.389.385c-.007.008-.082-.067-.122-.107a.62.62 0 00-.877-.002L1.764 5.823a.621.621 0 000 .88h.001a.621.621 0 00.879 0l.72-.72a.93.93 0 00.796.01zM5.95 4.202L4.757 5.396a1.194 1.194 0 01-1.722-.04.322.322 0 01-.067-.08l-.005-.005h.001a.285.285 0 01.389-.385c.007-.008.082.067.122.106a.619.619 0 00.877.003l1.196-1.196a.621.621 0 10-.879-.88l-.72.72a.932.932 0 00-.796-.01l1.112-1.113a1.194 1.194 0 011.686 0 1.193 1.193 0 010 1.686z"/><path style="solid-color:#000" d="M.875 1.155A.878.878 0 000 2.03v5.56c0 .481.394.876.875.876h5.562a.88.88 0 00.875-.876V2.03a.878.878 0 00-.875-.875zm0 .451h5.562c.238 0 .423.185.423.424v5.56a.418.418 0 01-.423.424H.875a.418.418 0 01-.423-.424V2.03c0-.239.185-.424.423-.424z" color="#000"/></svg>